<?xml version="1.0" encoding="utf-8"?>
<!-- Generator: Adobe Illustrator 21.1.0, SVG Export Plug-In . SVG Version: 6.00 Build 0)  -->
<svg version="1.1" id="レイヤー_1" xmlns="http://www.w3.org/2000/svg" xmlns:xlink="http://www.w3.org/1999/xlink" x="0px"
	 y="0px" viewBox="0 0 340 120" style="enable-background:new 0 0 340 120;" xml:space="preserve">
<style type="text/css">
	.st0{fill:#008837;stroke:#008837;stroke-width:2;stroke-miterlimit:10;}
	.st1{fill:#333333;stroke:#000000;stroke-miterlimit:10;}
	.st2{fill:#008837;stroke:#008837;stroke-width:0.75;stroke-miterlimit:10;}
	.st3{font-family:'HiraKakuStd-W8-83pv-RKSJ-H';}
	.st4{font-size:26.5276px;}
</style>
<g>
	<path class="st0" d="M27.4,54.2c0.5,0.2,1.1,0.3,1.7,0.4c0.6,0.1,1.3,0.2,2,0.3c2.7,0.3,5.4,0.8,5.4,3.4v1.9c0,2.6-2.8,3.5-5.4,3.5
		h-6.7v-1.5H31c1.8,0,3.5-0.3,3.5-2.2v-1.7c0-0.9-0.7-1.4-1.7-1.7c-0.5-0.1-1.1-0.3-1.7-0.3c-0.6-0.1-1.3-0.1-2-0.2
		c-2.7-0.3-5.4-0.9-5.4-3.8v-1.4c0-2.6,2.3-3.4,5-3.4h6.4v1.4h-6.6c-1.6,0-2.8,0.6-2.8,2.1v1.3C25.7,53.3,26.3,53.8,27.4,54.2z"/>
	<path class="st1" d="M51.8,55c0-1.1-0.7-1.7-1.8-1.7c-1,0-2.2,0.7-3,1.4l0,0.4v6.8h-1.5V55c0-1.1-0.7-1.7-1.8-1.7
		c-1,0-2.2,0.7-2.9,1.4v7.1h-1.5v-9.2h1.2l0.1,1.1c1-0.9,2.3-1.4,3.4-1.4c1.2,0,2.2,0.5,2.6,1.5c0.9-0.9,2.4-1.5,3.6-1.5
		c1.7,0,2.9,1,2.9,2.8v6.8h-1.5V55z"/>
	<path class="st1" d="M64.4,54.7v7h-1.3L63,60.5c-0.9,1-2.2,1.3-3.6,1.3c-2.1,0-3.5-0.7-3.5-2.7c0-1.8,1.1-2.6,2.5-2.9
		c0.7-0.2,1.5-0.2,2.3-0.2c0.8,0,1.6,0,2.3,0v-1.2c0-1.2-1.3-1.5-2.5-1.5h-3.7v-1h3.7C62.5,52.3,64.4,52.7,64.4,54.7z M57.3,59
		c0,1.4,1,1.8,2.3,1.8c1.2,0,2.4-0.4,3.3-1.2v-2.7h-2.5C58.8,56.8,57.3,57.1,57.3,59z"/>
	<path class="st1" d="M69.6,53.8c0.2-0.3,0.5-0.5,0.8-0.7c0.6-0.4,1.4-0.8,2.6-0.8h0.3v1.1H73c-1,0-1.7,0.2-2.2,0.6
		c-0.3,0.2-0.5,0.4-0.8,0.7c-0.3,0.3-0.6,0.6-0.9,1v6h-1.5v-9.4h1.2l0.2,2.2L69.6,53.8z"/>
	<path class="st1" d="M80.6,53.3h-3.3v5.9c0,0.9,0.2,1.4,1.3,1.4h1.9l0,1.1h-2c-1.9,0-2.7-0.8-2.7-2.5v-5.9h-1.6v-1h1.7l0.1-2.4h1.4
		v2.4h3.3V53.3z"/>
	<path class="st0" d="M86.3,54.2c0.5,0.2,1.1,0.3,1.7,0.4c0.6,0.1,1.3,0.2,2,0.3c2.7,0.3,5.4,0.8,5.4,3.4v1.9c0,2.6-2.8,3.5-5.4,3.5
		h-6.7v-1.5h6.7c1.8,0,3.5-0.3,3.5-2.2v-1.7c0-0.9-0.7-1.4-1.7-1.7c-0.5-0.1-1.1-0.3-1.7-0.3c-0.6-0.1-1.3-0.1-2-0.2
		c-2.7-0.3-5.4-0.9-5.4-3.8v-1.4c0-2.6,2.3-3.4,5-3.4H94v1.4h-6.6c-1.6,0-2.8,0.6-2.8,2.1v1.3C84.6,53.3,85.3,53.8,86.3,54.2z"/>
	<path class="st1" d="M103.5,53.3h-3.3v5.9c0,0.9,0.2,1.4,1.3,1.4h1.9l0,1.1h-2c-1.9,0-2.7-0.8-2.7-2.5v-5.9h-1.6v-1h1.7l0.1-2.4
		h1.4v2.4h3.3V53.3z"/>
	<path class="st1" d="M108.8,60.7h1.2c1.5,0,2.6-0.4,2.6-1.9v-6.5l1.5,0V62c0,1.6-0.8,2.5-2.8,2.5h-5.2l-0.1-1h5.4
		c1.1,0,1.3-0.6,1.3-1.5v-1.1c-0.5,0.6-1.3,0.8-2.2,0.8h-1.6c-1.9,0-3.4-0.6-3.4-2.5v-6.9l1.5,0V59
		C106.9,60.3,107.5,60.7,108.8,60.7z"/>
	<path class="st1" d="M118.6,61.7h-1.5V48.9h1.5V61.7z"/>
	<path class="st1" d="M130.1,54.9v0.5c0,2-1.8,2.4-3.8,2.4h-3.4c0,0.4,0,0.8,0,1.2c0,0.3,0.1,0.6,0.2,0.9c0.2,0.5,0.8,0.8,2,0.8h4.3
		v1.1h-4.3c-2.4,0-3.7-0.6-3.7-2.8v-4c0-2,1.7-2.6,3.8-2.6h1.1C128.3,52.3,130.1,52.9,130.1,54.9z M122.9,55v1.8h3.4
		c1.4,0,2.3-0.2,2.3-1.6c0-1.6-0.6-1.8-2.3-1.8h-1.2C123.7,53.4,122.9,53.6,122.9,55z"/>
	<path class="st0" d="M33,85l6.7-16.3h2.7L49.2,85H47L45,79.7h-7.8L35.1,85H33z M37.8,78.3h6.7l-3.3-8.5L37.8,78.3z"/>
	<path class="st1" d="M52.7,76.3v4c0,1.5,0.9,1.6,2.3,1.6h3.5l0,1.1h-3.5c-2.5,0-3.8-0.8-3.8-2.6v-4.3c0-1.7,1.3-2.6,3.8-2.6h3.5
		l0,1.1h-3.6C53.6,74.7,52.7,74.8,52.7,76.3z"/>
	<path class="st1" d="M68.9,76.1v7h-1.3l-0.1-1.3c-0.9,1-2.2,1.3-3.6,1.3c-2.1,0-3.5-0.7-3.5-2.7c0-1.8,1.1-2.6,2.5-2.9
		c0.7-0.2,1.5-0.2,2.3-0.2c0.8,0,1.6,0,2.3,0v-1.2c0-1.2-1.3-1.5-2.5-1.5h-3.7v-1H65C67,73.6,68.9,74.1,68.9,76.1z M61.8,80.3
		c0,1.4,1,1.8,2.3,1.8c1.2,0,2.4-0.4,3.3-1.2v-2.7H65C63.3,78.1,61.8,78.5,61.8,80.3z"/>
	<path class="st1" d="M78.7,74.4v-4.2h1.5v10.2c0,1.9-1.5,2.6-3.4,2.6H75c-1.9,0-3.4-0.8-3.4-2.6v-4.4c0-1.8,1.5-2.5,3.4-2.5h1.5
		C77.3,73.6,78.2,73.8,78.7,74.4z M76.1,74.6c-0.4,0-0.7,0-1.1,0c-0.4,0-0.7,0-1,0.1c-0.6,0.2-1,0.6-1,1.5v4.1
		c0,1.4,0.8,1.6,2.2,1.6h1.4c1.3,0,2-0.4,2-1.6v-3.9C78.7,75,77.6,74.6,76.1,74.6z"/>
	<path class="st1" d="M91.6,76.2v0.5c0,2-1.8,2.4-3.8,2.4h-3.4c0,0.4,0,0.8,0,1.2c0,0.3,0.1,0.6,0.2,0.9c0.2,0.5,0.8,0.8,2,0.8h4.3
		V83h-4.3c-2.4,0-3.7-0.6-3.7-2.8v-4c0-2,1.7-2.6,3.8-2.6h1.1C89.8,73.6,91.6,74.2,91.6,76.2z M84.4,76.3v1.8h3.4
		c1.4,0,2.3-0.2,2.3-1.6c0-1.6-0.6-1.8-2.3-1.8h-1.2C85.2,74.7,84.4,74.9,84.4,76.3z"/>
	<path class="st1" d="M106.8,76.3c0-1.1-0.7-1.7-1.8-1.7c-1,0-2.2,0.7-3,1.4l0,0.4V83h-1.5v-6.8c0-1.1-0.7-1.7-1.8-1.7
		c-1,0-2.2,0.7-2.9,1.4V83h-1.5v-9.2h1.2l0.1,1.1c1-0.9,2.3-1.4,3.4-1.4c1.2,0,2.2,0.5,2.6,1.5c0.9-0.9,2.4-1.5,3.6-1.5
		c1.7,0,2.9,1,2.9,2.8V83h-1.5V76.3z"/>
	<path class="st1" d="M114.6,82h1.2c1.5,0,2.6-0.4,2.6-1.9v-6.5l1.5,0v9.7c0,1.6-0.8,2.5-2.8,2.5h-5.2l-0.1-1h5.4
		c1.1,0,1.3-0.6,1.3-1.5v-1.1c-0.5,0.6-1.3,0.8-2.2,0.8h-1.6c-1.9,0-3.4-0.6-3.4-2.5v-6.9l1.5,0v6.8C112.7,81.6,113.3,82,114.6,82z"
		/>
</g>
<path id="シェイプ_11_4_" class="st0" d="M144,46.2l-8.4-7.2V28.7L113,9.2h-11.9L92.8,2h-32l-8.4,7.2H40.5L17.9,28.7V39
	l-8.4,7.2v27.6l8.4,7.2v10.2l22.6,19.5h11.9l8.4,7.2h32l8.4-7.2H113l22.6-19.5V81l8.4-7.2V46.2z M112.2,10.9l21.5,18.6v7.9L103,10.9
	H112.2z M133.7,39.6v40.7l-33.4,28.8H53.2L19.8,80.4V39.6l33.4-28.8h47.2L133.7,39.6z M61.6,3.6H92l6.5,5.6H55L61.6,3.6z M19.8,29.4
	l21.5-18.6h9.2L19.8,37.3V29.4z M11.4,73.1V46.9l6.5-5.6v37.5L11.4,73.1z M41.3,109.1L19.8,90.6v-7.9l30.7,26.5H41.3z M92,116.4
	H61.6l-6.5-5.6h43.4L92,116.4z M133.7,90.6l-21.5,18.6H103l30.7-26.5V90.6z M142.1,73.1l-6.5,5.6V41.3l6.5,5.6V73.1z"/>
<g>
	<path class="st2" d="M39.4,31.1h11.7v1H39.4V31.1z"/>
	<path class="st2" d="M64.4,31c0.3,0.1,0.7,0.2,1.1,0.2c0.4,0.1,0.8,0.1,1.3,0.2c1.7,0.2,3.5,0.5,3.5,2.2v1.2c0,1.7-1.8,2.2-3.5,2.2
		h-4.3v-0.9h4.3c1.2,0,2.2-0.2,2.2-1.4v-1.1c0-0.6-0.4-0.9-1.1-1.1c-0.3-0.1-0.7-0.2-1.1-0.2c-0.4-0.1-0.8-0.1-1.3-0.2
		C63.8,32,62,31.6,62,29.8v-0.9c0-1.7,1.5-2.2,3.2-2.2h4.1v0.9h-4.2c-1,0-1.8,0.4-1.8,1.3v0.8C63.3,30.4,63.7,30.8,64.4,31z"/>
	<path class="st2" d="M74.3,31c0.3,0.1,0.7,0.2,1.1,0.2c0.4,0.1,0.8,0.1,1.3,0.2c1.7,0.2,3.5,0.5,3.5,2.2v1.2c0,1.7-1.8,2.2-3.5,2.2
		h-4.3v-0.9h4.3c1.2,0,2.2-0.2,2.2-1.4v-1.1c0-0.6-0.4-0.9-1.1-1.1c-0.3-0.1-0.7-0.2-1.1-0.2c-0.4-0.1-0.8-0.1-1.3-0.2
		c-1.7-0.2-3.4-0.6-3.4-2.5v-0.9c0-1.7,1.5-2.2,3.2-2.2h4.1v0.9H75c-1,0-1.8,0.4-1.8,1.3v0.8C73.2,30.4,73.6,30.8,74.3,31z"/>
	<path class="st2" d="M81.4,37.1l4.3-10.5h1.8l4.3,10.5h-1.4l-1.3-3.4h-5l-1.3,3.4H81.4z M84.5,32.8h4.3l-2.1-5.5L84.5,32.8z"/>
	<path class="st2" d="M102.4,31.1h11.7v1h-11.7V31.1z"/>
</g>
<text transform="matrix(1 0 0 1 149.0005 51.5693)"><tspan x="0" y="0" class="st3 st4">Smart Style</tspan><tspan x="18.3" y="36.2" class="st3 st4">Academy</tspan></text>
</svg>
